<svg width="19" height="24" viewBox="0 0 19 24" fill="none" xmlns="http://www.w3.org/2000/svg">
<g clip-path="url(#clip0_3366_8172)">
<ellipse cx="9.5" cy="21" rx="9.5" ry="4" fill="url(#paint0_radial_3366_8172)" fill-opacity="0.7"/>
<path d="M9.09961 5.69727C9.53014 5.63346 10.0167 5.63566 10.6914 5.69434C11.9376 5.80274 13.8957 6.82249 14.3027 9.20312C14.5877 10.871 13.5402 12.0737 12.5713 13.0039C12.0789 13.4766 11.8326 13.741 11.6953 14.0586C11.5597 14.3723 11.5153 14.7776 11.5537 15.5654L11.5723 15.9326H10.6787L10.5938 15.8799L9.95801 15.4863L9.20898 15.9238L9.12793 15.9717H8.29492V15.6211C8.29493 15.2795 8.31089 14.4109 8.37402 13.6533C8.46413 12.5721 9.14435 11.9485 9.60254 11.6152C9.85118 11.4344 10.3215 11.1607 10.7246 10.7441C11.1221 10.3333 11.3676 9.86709 11.25 9.33789C11.1634 8.94835 10.8848 8.73542 10.4951 8.62793C10.0951 8.51769 9.63258 8.53991 9.33203 8.59766L9.31543 8.60059L9.29785 8.60156C9.01846 8.62792 8.22215 8.95648 7.89355 10.0244L7.7373 10.5312L7.33301 10.1875L4.77344 8.0166L4.04688 7.39941H5C5.68006 7.39941 6.07153 7.23007 6.44043 6.99414C6.64227 6.86504 6.81842 6.72916 7.05762 6.5625C7.28744 6.40238 7.5488 6.23357 7.87207 6.07715L7.87891 6.07324L7.88672 6.07031C8.30518 5.89097 8.6648 5.76175 9.09961 5.69727Z" fill="url(#paint1_linear_3366_8172)" stroke="#7B6D39" stroke-width="0.7"/>
<rect x="9.98462" y="16.505" width="3.50654" height="3.50654" transform="rotate(45 9.98462 16.505)" fill="#EEB809" stroke="#7B6D39" stroke-width="0.7"/>
</g>
<defs>
<radialGradient id="paint0_radial_3366_8172" cx="0" cy="0" r="1" gradientUnits="userSpaceOnUse" gradientTransform="translate(10 21) rotate(90) scale(3.5 8.3125)">
<stop stop-color="#EEB809" stop-opacity="0.5"/>
<stop offset="1" stop-color="#8E772D" stop-opacity="0"/>
</radialGradient>
<linearGradient id="paint1_linear_3366_8172" x1="12.2513" y1="6.77554" x2="8.60628" y2="15.4229" gradientUnits="userSpaceOnUse">
<stop offset="0.0638996" stop-color="#F5CF51"/>
<stop offset="1" stop-color="#EEB809"/>
</linearGradient>
<clipPath id="clip0_3366_8172">
<rect width="19" height="24" fill="white"/>
</clipPath>
</defs>
</svg>
